<svg xmlns="http://www.w3.org/2000/svg" width="603.97" height="603.97" viewBox="0 0 603.97 603.97"><defs><style>.a{fill:#006dff;}.b{opacity:0.5;}.c,.d,.e{fill:#fff;}.c,.e{stroke:#fff;}.c{stroke-width:4px;}.e{stroke-width:2px;}</style></defs><g transform="translate(-186 2040)"><g transform="translate(1)"><path class="a" d="M301.985,0C468.767,0,603.97,135.2,603.97,301.985S468.767,603.97,301.985,603.97,0,468.767,0,301.985,135.2,0,301.985,0Z" transform="translate(185 -2040)"/><path class="b" d="M230.344-188.754,148.535-61.242q-7.313,11.883-10.283,16.225t-9.141,12.8q-6.17,8.455-9.369,11.2t-9.369,8Q104.2-7.77,98.947-6.4T85.693-2.514A61.375,61.375,0,0,1,68.783.229Q59.871.457,48.445.686T22.852,0l162.7-243.141L31.992-459.773q49.359-3.656,73.125,5.941t51.645,49.816l73.582,107.4,73.582-107.4q27.879-40.219,51.645-49.816t73.125-5.941L275.133-243.141,437.836,0q-14.168.914-25.594.686T391.9.229a61.374,61.374,0,0,1-16.91-2.742Q367-5.027,361.74-6.4t-11.426-6.627q-6.17-5.256-9.369-8t-9.369-11.2q-6.17-8.455-9.141-12.8T312.152-61.242Z" transform="translate(257 -1513)"/><g transform="translate(62 -2742)"><path class="c" d="M81.839-80.69,28.812-53.646,81.839-26.6q6.628,3.535,8.97,8.484t.133,12.2l-72.647-37.3a22.266,22.266,0,0,1-6.673-4.728,8.539,8.539,0,0,1-1.9-5.7,8.539,8.539,0,0,1,1.9-5.7,22.266,22.266,0,0,1,6.673-4.728l72.647-37.3q2.209,7.247-.133,12.2T81.839-80.69Zm81.944,68.847L149.731-33.054,135.679-11.843q-2.033,2.917-3.447,4.728a25.568,25.568,0,0,1-3.27,3.447,14.369,14.369,0,0,1-3.668,2.43A20.364,20.364,0,0,1,120.875.044a28.618,28.618,0,0,1-5.656.442Q112.17.442,107.839,0L139.3-47.371l-29.7-42.245q10.959-1.149,16.483.8t11.092,9.987l12.55,17.941,12.55-17.941q5.568-8.042,11.092-9.987t16.483-.8l-29.7,42.245L191.622,0q-4.331.442-7.38.486a28.618,28.618,0,0,1-5.656-.442,20.364,20.364,0,0,1-4.419-1.281,14.369,14.369,0,0,1-3.668-2.43,25.568,25.568,0,0,1-3.27-3.447Q165.816-8.926,163.783-11.843ZM284.172-121.079V-16.615q0,3.535,1.635,4.684t5.524,1.149a11.169,11.169,0,0,1-2.7,7.822Q285.94,0,280.283,0q-7.07,0-10.164-4.021t-3.093-11.887a19.626,19.626,0,0,1-1.016,2.254,33.746,33.746,0,0,1-3,4.286,31.241,31.241,0,0,1-5.17,5.259A28.04,28.04,0,0,1,250.1-.044a30.5,30.5,0,0,1-10.65,1.812,41.358,41.358,0,0,1-18.029-3.756,32.1,32.1,0,0,1-12.55-10.3,47.445,47.445,0,0,1-7.026-14.759,64.6,64.6,0,0,1-2.342-17.764,64.6,64.6,0,0,1,2.342-17.764,47.445,47.445,0,0,1,7.026-14.759,32.1,32.1,0,0,1,12.55-10.3,41.358,41.358,0,0,1,18.029-3.756,29.232,29.232,0,0,1,10.65,1.9,27.993,27.993,0,0,1,7.777,4.286,30.956,30.956,0,0,1,5.126,5.435,33.319,33.319,0,0,1,2.961,4.507q.707,1.458,1.061,2.342v-61.07q2.74,0,4.11.044t3.579.265a10.932,10.932,0,0,1,3.27.707,19.365,19.365,0,0,1,2.475,1.414,5.722,5.722,0,0,1,2.077,2.3,16.933,16.933,0,0,1,1.149,3.4A20.7,20.7,0,0,1,284.172-121.079ZM260.884-68.273q-6.142-8.794-18.781-8.794t-18.781,8.794q-6.142,8.794-6.142,23.465t6.142,23.465q6.142,8.794,18.781,8.794t18.781-8.794q6.142-8.794,6.142-23.465T260.884-68.273Zm84.993,70.04a42.671,42.671,0,0,1-18.339-3.756A33.494,33.494,0,0,1,314.68-12.24,46.812,46.812,0,0,1,307.344-27a61.8,61.8,0,0,1-2.475-17.808,61.8,61.8,0,0,1,2.475-17.808,46.812,46.812,0,0,1,7.335-14.759,33.494,33.494,0,0,1,12.859-10.252,42.671,42.671,0,0,1,18.339-3.756q17.322,0,28.458,10.826t12.285,30q.707,12.9-12.2,12.9H322.9a30.144,30.144,0,0,0,6.363,17.808q5.833,7.291,16.615,7.291,9.1,0,21.83-3.977a7.966,7.966,0,0,1,3.8-.53,15.061,15.061,0,0,1,4.021.884,7.607,7.607,0,0,1,3.491,3.049,15.985,15.985,0,0,1,2.3,5.966q-.53.354-1.591.972t-4.552,2.165a61.714,61.714,0,0,1-7.335,2.7A80.35,80.35,0,0,1,358.03.8,75.432,75.432,0,0,1,345.878,1.768ZM322.9-51.967h45.957Q368.149-62.926,362.4-70t-16.527-7.07q-10.782,0-16.527,7.07T322.9-51.967ZM445.188-2.872A11.563,11.563,0,0,1,436.925,0a11.563,11.563,0,0,1-8.263-2.872,22.281,22.281,0,0,1-5.17-8.617l-28.9-78.127a73.938,73.938,0,0,1,8.44-.044,15.408,15.408,0,0,1,6.275,1.635,13.263,13.263,0,0,1,4.772,4.507,36.9,36.9,0,0,1,3.933,8.573l18.913,54.972,18.913-54.972a36.9,36.9,0,0,1,3.933-8.573,13.263,13.263,0,0,1,4.772-4.507,15.408,15.408,0,0,1,6.275-1.635,73.938,73.938,0,0,1,8.44.044l-28.9,78.127A22.281,22.281,0,0,1,445.188-2.872Zm113.1-50.774L505.259-80.69q-6.628-3.535-8.97-8.484t-.133-12.2l72.647,37.3a22.267,22.267,0,0,1,6.673,4.728,8.539,8.539,0,0,1,1.9,5.7,8.539,8.539,0,0,1-1.9,5.7,22.267,22.267,0,0,1-6.673,4.728l-72.647,37.3q-2.209-7.247.133-12.2t8.97-8.484Z" transform="translate(140 1047)"/></g><path class="d" d="M6.132,0Q5.561,0,5.3-.01T4.646-.048a1.639,1.639,0,0,1-.552-.1Q3.942-.229,3.7-.371A.745.745,0,0,1,3.38-.724Q3.294-.933,3.2-1.257a3.457,3.457,0,0,1-.124-.733q-.029-.409-.029-.981V-27.308H13.063a8.593,8.593,0,0,1,6.17,2.152,7.582,7.582,0,0,1,2.266,5.77,7.648,7.648,0,0,1-1.781,5.161,7.57,7.57,0,0,1-4.561,2.571L21.652,0A5.285,5.285,0,0,1,18.8-.219a5.606,5.606,0,0,1-1.876-2.1l-5.084-9.141H6.132Zm6.932-24.565H6.132v10.359h6.932a5.227,5.227,0,0,0,3.98-1.409,5.262,5.262,0,0,0,1.333-3.771,5.262,5.262,0,0,0-1.333-3.771A5.227,5.227,0,0,0,13.063-24.565ZM34.093.381a8.746,8.746,0,0,1-3.809-.79A6.782,6.782,0,0,1,27.628-2.6,10.082,10.082,0,0,1,26.133-5.76a14.065,14.065,0,0,1-.5-3.818,14.065,14.065,0,0,1,.5-3.818,10.082,10.082,0,0,1,1.495-3.161,6.782,6.782,0,0,1,2.656-2.19,8.746,8.746,0,0,1,3.809-.79,7.915,7.915,0,0,1,5.875,2.295,9.591,9.591,0,0,1,2.523,6.427,2.513,2.513,0,0,1-.514,1.847,2.748,2.748,0,0,1-2.114.647h-11.1a7.578,7.578,0,0,0,1.476,4.427,4.589,4.589,0,0,0,3.856,1.761,14.339,14.339,0,0,0,4.228-.724,6.576,6.576,0,0,1,.657-.181,3.393,3.393,0,0,1,.638-.048,1.4,1.4,0,0,1,.667.143,1.7,1.7,0,0,1,.543.533,2.968,2.968,0,0,1,.428,1,2.434,2.434,0,0,1-.3.19q-.2.114-.885.428a11.954,11.954,0,0,1-1.457.552,14.542,14.542,0,0,1-2,.428A16.448,16.448,0,0,1,34.093.381ZM28.761-10.835H39.425a6.871,6.871,0,0,0-1.419-4.389,4.708,4.708,0,0,0-3.913-1.8,4.708,4.708,0,0,0-3.913,1.8A6.871,6.871,0,0,0,28.761-10.835ZM48.982-2.38a10.607,10.607,0,0,1-2.39-7.2,10.607,10.607,0,0,1,2.39-7.2,8.311,8.311,0,0,1,6.636-2.761,10.974,10.974,0,0,1,2.076.19,8.943,8.943,0,0,1,1.647.457,11.222,11.222,0,0,1,1.162.543,4.854,4.854,0,0,1,.733.467l.229.19a2.456,2.456,0,0,1-.438.943,1.654,1.654,0,0,1-.552.476,1.425,1.425,0,0,1-.714.086,3.485,3.485,0,0,1-.667-.1q-.219-.067-.676-.219a.59.59,0,0,1-.114-.038,8.271,8.271,0,0,0-2.685-.476,5.192,5.192,0,0,0-4.437,2.076,8.772,8.772,0,0,0-1.542,5.37,8.772,8.772,0,0,0,1.542,5.37,5.192,5.192,0,0,0,4.437,2.076A8.271,8.271,0,0,0,58.3-2.609a4.6,4.6,0,0,1,1.828-.362q.99.152,1.333,1.5a2.529,2.529,0,0,1-.238.2,7.847,7.847,0,0,1-.714.438,9.209,9.209,0,0,1-1.181.562A9.793,9.793,0,0,1,57.7.181a10.611,10.611,0,0,1-2.085.2A8.311,8.311,0,0,1,48.982-2.38ZM73.144.381a8.746,8.746,0,0,1-3.809-.79A6.782,6.782,0,0,1,66.679-2.6,10.082,10.082,0,0,1,65.184-5.76a14.065,14.065,0,0,1-.5-3.818,14.065,14.065,0,0,1,.5-3.818,10.082,10.082,0,0,1,1.495-3.161,6.782,6.782,0,0,1,2.656-2.19,8.746,8.746,0,0,1,3.809-.79,7.915,7.915,0,0,1,5.875,2.295,9.591,9.591,0,0,1,2.523,6.427,2.513,2.513,0,0,1-.514,1.847,2.748,2.748,0,0,1-2.114.647h-11.1a7.578,7.578,0,0,0,1.476,4.427,4.589,4.589,0,0,0,3.856,1.761,14.339,14.339,0,0,0,4.228-.724,6.576,6.576,0,0,1,.657-.181,3.393,3.393,0,0,1,.638-.048,1.4,1.4,0,0,1,.667.143,1.7,1.7,0,0,1,.543.533,2.968,2.968,0,0,1,.428,1,2.434,2.434,0,0,1-.3.19q-.2.114-.885.428a11.954,11.954,0,0,1-1.457.552,14.542,14.542,0,0,1-2,.428A16.448,16.448,0,0,1,73.144.381ZM67.812-10.835H78.476a6.871,6.871,0,0,0-1.419-4.389,4.708,4.708,0,0,0-3.913-1.8,4.708,4.708,0,0,0-3.913,1.8A6.871,6.871,0,0,0,67.812-10.835ZM86.9-3.218V-19.157q.59,0,.847.01t.657.057a1.29,1.29,0,0,1,.562.162,3.48,3.48,0,0,1,.381.324,1.052,1.052,0,0,1,.3.533,7.568,7.568,0,0,1,.133.781,9.086,9.086,0,0,1,.057,1.1v12.8a1.337,1.337,0,0,0,.286.99,1.589,1.589,0,0,0,1.066.267q0,2.133-2,2.133a1.935,1.935,0,0,1-1.79-.8A4.682,4.682,0,0,1,86.9-3.218ZM86.985-23.1A1.855,1.855,0,0,1,86.4-24.47a1.855,1.855,0,0,1,.581-1.371,1.9,1.9,0,0,1,1.381-.571,1.9,1.9,0,0,1,1.381.571,1.855,1.855,0,0,1,.581,1.371,1.855,1.855,0,0,1-.581,1.371,1.9,1.9,0,0,1-1.381.571A1.9,1.9,0,0,1,86.985-23.1ZM104.235-.524A2.017,2.017,0,0,1,102.788,0a2.017,2.017,0,0,1-1.447-.524,4.347,4.347,0,0,1-.971-1.685L94.123-19.157q.952-.038,1.562-.038a1.747,1.747,0,0,1,1.085.362,3.159,3.159,0,0,1,.828.99A14.142,14.142,0,0,1,98.408-16l4.38,12.264L107.168-16a14.142,14.142,0,0,1,.809-1.847,3.159,3.159,0,0,1,.828-.99,1.747,1.747,0,0,1,1.085-.362q.609,0,1.562.038L105.206-2.209A4.347,4.347,0,0,1,104.235-.524Zm17.869.9a8.746,8.746,0,0,1-3.809-.79,6.782,6.782,0,0,1-2.656-2.19,10.082,10.082,0,0,1-1.495-3.161,14.065,14.065,0,0,1-.5-3.818,14.065,14.065,0,0,1,.5-3.818,10.082,10.082,0,0,1,1.495-3.161,6.782,6.782,0,0,1,2.656-2.19,8.746,8.746,0,0,1,3.809-.79,7.915,7.915,0,0,1,5.875,2.295,9.591,9.591,0,0,1,2.523,6.427,2.513,2.513,0,0,1-.514,1.847,2.748,2.748,0,0,1-2.114.647h-11.1a7.578,7.578,0,0,0,1.476,4.427A4.589,4.589,0,0,0,122.1-2.133a14.339,14.339,0,0,0,4.228-.724,6.576,6.576,0,0,1,.657-.181,3.393,3.393,0,0,1,.638-.048,1.4,1.4,0,0,1,.666.143,1.7,1.7,0,0,1,.543.533,2.968,2.968,0,0,1,.428,1,2.434,2.434,0,0,1-.3.19q-.2.114-.885.428a11.953,11.953,0,0,1-1.457.552,14.542,14.542,0,0,1-2,.428A16.448,16.448,0,0,1,122.1.381Zm-5.332-11.216h10.664a6.871,6.871,0,0,0-1.419-4.389,4.708,4.708,0,0,0-3.913-1.8,4.708,4.708,0,0,0-3.913,1.8A6.871,6.871,0,0,0,116.772-10.835ZM163.8-2.552Q161.555.381,156.489.381t-7.312-2.933q-2.247-2.933-2.247-9.141V-27.308q.571,0,.828.01t.657.038a1.639,1.639,0,0,1,.552.1q.152.076.39.219a.745.745,0,0,1,.324.352q.086.209.181.533a3.457,3.457,0,0,1,.124.733q.029.409.029.981v12.645a23.177,23.177,0,0,0,.3,4.085,8.658,8.658,0,0,0,1.028,2.885,4.348,4.348,0,0,0,1.99,1.79,7.665,7.665,0,0,0,3.152.571,7.665,7.665,0,0,0,3.152-.571,4.348,4.348,0,0,0,1.99-1.79,8.658,8.658,0,0,0,1.028-2.885,23.177,23.177,0,0,0,.3-4.085V-27.308q.571,0,.828.01t.657.038a1.639,1.639,0,0,1,.552.1q.152.076.39.219a.745.745,0,0,1,.324.352q.086.209.181.533a3.457,3.457,0,0,1,.124.733q.029.409.029.981v12.645Q166.049-5.484,163.8-2.552Zm21.106-8.093q0-6.379-4.97-6.379t-4.97,6.379V0q-.59,0-.847-.01t-.657-.057a1.29,1.29,0,0,1-.562-.162,3.48,3.48,0,0,1-.381-.324,1.052,1.052,0,0,1-.3-.533,7.568,7.568,0,0,1-.133-.781,9.086,9.086,0,0,1-.057-1.1V-19.157q.59,0,.847.01t.657.057a1.29,1.29,0,0,1,.562.162,3.48,3.48,0,0,1,.381.324,1.052,1.052,0,0,1,.3.533,7.568,7.568,0,0,1,.133.781,9.086,9.086,0,0,1,.057,1.1v.324a3.979,3.979,0,0,1,.181-.467,6.056,6.056,0,0,1,.562-.885,6.027,6.027,0,0,1,1-1.085,5.422,5.422,0,0,1,1.542-.857,5.869,5.869,0,0,1,2.142-.381q7.446,0,7.446,8.893V0q-.59,0-.847-.01t-.657-.057a1.29,1.29,0,0,1-.562-.162,3.48,3.48,0,0,1-.381-.324,1.052,1.052,0,0,1-.3-.533,7.568,7.568,0,0,1-.133-.781,9.086,9.086,0,0,1-.057-1.1Zm22.553-18.224q.59,0,.847.01t.657.057a1.29,1.29,0,0,1,.562.162,3.48,3.48,0,0,1,.381.324,1.052,1.052,0,0,1,.3.533,7.568,7.568,0,0,1,.133.781,9.086,9.086,0,0,1,.057,1.1V-3.39a1.337,1.337,0,0,0,.286.99,1.589,1.589,0,0,0,1.066.267q0,2.133-2,2.133a1.935,1.935,0,0,1-1.79-.8,4.682,4.682,0,0,1-.5-2.418v-.59l-.229.533a6.56,6.56,0,0,1-.657,1,7.008,7.008,0,0,1-1.181,1.257,6.471,6.471,0,0,1-1.781.962,6.859,6.859,0,0,1-2.476.438,8.746,8.746,0,0,1-3.809-.79,6.782,6.782,0,0,1-2.656-2.19,10.082,10.082,0,0,1-1.495-3.161,14.065,14.065,0,0,1-.5-3.818,14.065,14.065,0,0,1,.5-3.818,10.082,10.082,0,0,1,1.495-3.161,6.782,6.782,0,0,1,2.656-2.19,8.746,8.746,0,0,1,3.809-.79,6.859,6.859,0,0,1,2.476.438,6.466,6.466,0,0,1,1.79.971,6.863,6.863,0,0,1,1.171,1.247,7.448,7.448,0,0,1,.667,1.019,5.047,5.047,0,0,1,.219.533Zm-3.2,12.445a5.728,5.728,0,0,0-2.666-.6,5.728,5.728,0,0,0-2.666.6,4.741,4.741,0,0,0-1.838,1.638,7.952,7.952,0,0,0-1.019,2.352,11.293,11.293,0,0,0-.343,2.856,11.293,11.293,0,0,0,.343,2.856,7.951,7.951,0,0,0,1.019,2.352,4.741,4.741,0,0,0,1.838,1.638,5.728,5.728,0,0,0,2.666.6,5.728,5.728,0,0,0,2.666-.6A4.741,4.741,0,0,0,206.1-4.37a7.951,7.951,0,0,0,1.019-2.352,11.293,11.293,0,0,0,.343-2.856,11.293,11.293,0,0,0-.343-2.856,7.951,7.951,0,0,0-1.019-2.352A4.741,4.741,0,0,0,204.262-16.425ZM223.806.381A8.746,8.746,0,0,1,220-.409a6.782,6.782,0,0,1-2.656-2.19,10.082,10.082,0,0,1-1.495-3.161,14.065,14.065,0,0,1-.5-3.818,14.065,14.065,0,0,1,.5-3.818,10.082,10.082,0,0,1,1.495-3.161A6.782,6.782,0,0,1,220-18.748a8.746,8.746,0,0,1,3.809-.79,7.915,7.915,0,0,1,5.875,2.295,9.591,9.591,0,0,1,2.523,6.427,2.513,2.513,0,0,1-.514,1.847,2.748,2.748,0,0,1-2.114.647h-11.1a7.578,7.578,0,0,0,1.476,4.427,4.589,4.589,0,0,0,3.856,1.761,14.339,14.339,0,0,0,4.228-.724,6.576,6.576,0,0,1,.657-.181,3.393,3.393,0,0,1,.638-.048,1.4,1.4,0,0,1,.667.143,1.7,1.7,0,0,1,.543.533,2.968,2.968,0,0,1,.428,1,2.434,2.434,0,0,1-.3.19q-.2.114-.885.428a11.954,11.954,0,0,1-1.457.552,14.542,14.542,0,0,1-2,.428A16.448,16.448,0,0,1,223.806.381Zm-5.332-11.216h10.664a6.871,6.871,0,0,0-1.419-4.389,4.708,4.708,0,0,0-3.913-1.8,4.708,4.708,0,0,0-3.913,1.8A6.871,6.871,0,0,0,218.474-10.835Zm18.592-8.322q.59,0,.847.01t.657.057a1.29,1.29,0,0,1,.562.162,3.48,3.48,0,0,1,.381.324,1.052,1.052,0,0,1,.3.533,7.568,7.568,0,0,1,.133.781A8.9,8.9,0,0,1,240-16.206a2.959,2.959,0,0,1,.162-.467,5.013,5.013,0,0,1,.5-.828,5.025,5.025,0,0,1,.876-.962,4.583,4.583,0,0,1,1.381-.752,5.567,5.567,0,0,1,1.942-.324,11,11,0,0,1,1.971.171,7.475,7.475,0,0,1,1.362.343l.438.171a4.784,4.784,0,0,1-.4,1.085,2,2,0,0,1-.467.609,1.274,1.274,0,0,1-.619.248,2.856,2.856,0,0,1-.686.029q-.3-.029-.866-.086t-.981-.057q-4.608,0-4.608,6.379V0q-.59,0-.847-.01t-.657-.057a1.29,1.29,0,0,1-.562-.162,3.48,3.48,0,0,1-.381-.324,1.052,1.052,0,0,1-.3-.533,7.568,7.568,0,0,1-.133-.781,9.086,9.086,0,0,1-.057-1.1Zm27.847,1.276a2.968,2.968,0,0,1-.428,1,1.7,1.7,0,0,1-.543.533,1.423,1.423,0,0,1-.676.143,3.459,3.459,0,0,1-.647-.048,6.575,6.575,0,0,1-.657-.181,11.662,11.662,0,0,0-3.352-.59q-3.523,0-3.523,2.742a2.314,2.314,0,0,0,.924,1.933,7.581,7.581,0,0,0,3.094,1.133A11.628,11.628,0,0,1,264.266-9.2a4.842,4.842,0,0,1,1.695,4,4.963,4.963,0,0,1-1.809,4.17A8.382,8.382,0,0,1,258.915.381,17.1,17.1,0,0,1,256.4.2a12.173,12.173,0,0,1-2.019-.448q-.8-.267-1.428-.533a8.013,8.013,0,0,1-.914-.438l-.286-.19a2.968,2.968,0,0,1,.428-1,1.7,1.7,0,0,1,.543-.533,1.4,1.4,0,0,1,.667-.143,3.393,3.393,0,0,1,.638.048,6.576,6.576,0,0,1,.657.181,14.339,14.339,0,0,0,4.228.724q4.037,0,4.037-3.066a2.714,2.714,0,0,0-.99-2.266,7.68,7.68,0,0,0-3.371-1.181,9.783,9.783,0,0,1-4.951-1.98,4.7,4.7,0,0,1-1.562-3.656,4.855,4.855,0,0,1,1.647-3.771,7.08,7.08,0,0,1,4.885-1.485,12.222,12.222,0,0,1,3.142.419,12.055,12.055,0,0,1,2.38.838ZM276.5-16.644V-8.4q0,1.219.029,1.933t.133,1.533a4.275,4.275,0,0,0,.314,1.257,3.375,3.375,0,0,0,.581.838,1.934,1.934,0,0,0,.924.552,5.068,5.068,0,0,0,1.333.152,7.115,7.115,0,0,0,1.085-.1q.609-.1.971-.19l.362-.1a2.153,2.153,0,0,1-.686,2.228,4.155,4.155,0,0,1-2.495.667A6.632,6.632,0,0,1,276.689.01a4.177,4.177,0,0,1-1.581-1.019,4.426,4.426,0,0,1-.952-1.781,12.468,12.468,0,0,1-.467-2.428q-.124-1.295-.124-3.18v-8.246H268.9q0-.438.019-.686a3.856,3.856,0,0,1,.124-.647,1.387,1.387,0,0,1,.314-.619,1.8,1.8,0,0,1,.647-.39,2.874,2.874,0,0,1,1.047-.171h2.514v-5.6q.59,0,.847.01t.657.057a1.29,1.29,0,0,1,.562.162,3.48,3.48,0,0,1,.381.324,1.052,1.052,0,0,1,.3.533,7.568,7.568,0,0,1,.133.781,9.086,9.086,0,0,1,.057,1.1v2.628h5.713q0,.438-.019.686a3.856,3.856,0,0,1-.124.647,1.387,1.387,0,0,1-.314.619,1.8,1.8,0,0,1-.647.39,2.874,2.874,0,0,1-1.047.171Zm24.972,5.389V-3.39a1.337,1.337,0,0,0,.286.99,1.589,1.589,0,0,0,1.066.267q0,2.133-2,2.133a1.935,1.935,0,0,1-1.79-.8,4.682,4.682,0,0,1-.5-2.418,1.926,1.926,0,0,1-.209.6,4.617,4.617,0,0,1-.647.924,5.745,5.745,0,0,1-1.1.981,6.2,6.2,0,0,1-1.7.771,7.8,7.8,0,0,1-2.295.324,7.11,7.11,0,0,1-4.856-1.6,5.843,5.843,0,0,1-1.828-4.646,6.6,6.6,0,0,1,.457-2.523,5.13,5.13,0,0,1,1.219-1.828,7.067,7.067,0,0,1,1.828-1.219,9.942,9.942,0,0,1,2.18-.743,16.861,16.861,0,0,1,2.4-.324,23.453,23.453,0,0,1,2.371-.048q1.085.038,2.19.171-.019-.762-.048-1.162t-.114-.981a2.83,2.83,0,0,0-.248-.885,4.192,4.192,0,0,0-.457-.667,1.767,1.767,0,0,0-.724-.533,6.015,6.015,0,0,0-1.057-.3,7.664,7.664,0,0,0-1.466-.124,13.259,13.259,0,0,0-3.094.371,13.853,13.853,0,0,0-2.352.733l-.781.381a3.32,3.32,0,0,1-.4-1.333,1.3,1.3,0,0,1,.324-.952,2.922,2.922,0,0,1,.781-.619,6.293,6.293,0,0,1,1.1-.448,14.516,14.516,0,0,1,4.418-.647,14.088,14.088,0,0,1,2.875.257,4.812,4.812,0,0,1,1.98.847,6.284,6.284,0,0,1,1.219,1.209,4.118,4.118,0,0,1,.657,1.714,17.477,17.477,0,0,1,.257,1.952Q301.47-12.7,301.47-11.254ZM288.9-5.865a3.687,3.687,0,0,0,1.009,2.714,4.409,4.409,0,0,0,3.237,1.019,5.053,5.053,0,0,0,2.98-.876,5.184,5.184,0,0,0,1.828-2.228,7.448,7.448,0,0,0,.581-2.971v-1.885Q288.9-10.759,288.9-5.865Zm31.827-4.78q0-6.379-4.97-6.379t-4.97,6.379V0q-.59,0-.847-.01t-.657-.057a1.29,1.29,0,0,1-.562-.162,3.48,3.48,0,0,1-.381-.324,1.052,1.052,0,0,1-.3-.533,7.568,7.568,0,0,1-.133-.781,9.086,9.086,0,0,1-.057-1.1V-19.157q.59,0,.847.01t.657.057a1.29,1.29,0,0,1,.562.162,3.48,3.48,0,0,1,.381.324,1.052,1.052,0,0,1,.3.533,7.568,7.568,0,0,1,.133.781,9.086,9.086,0,0,1,.057,1.1v.324a3.979,3.979,0,0,1,.181-.467,6.056,6.056,0,0,1,.562-.885,6.027,6.027,0,0,1,1-1.085,5.422,5.422,0,0,1,1.542-.857,5.869,5.869,0,0,1,2.142-.381q7.446,0,7.446,8.893V0q-.59,0-.847-.01t-.657-.057a1.29,1.29,0,0,1-.562-.162,3.48,3.48,0,0,1-.381-.324,1.052,1.052,0,0,1-.3-.533,7.568,7.568,0,0,1-.133-.781,9.086,9.086,0,0,1-.057-1.1Zm22.553-18.224q.59,0,.847.01t.657.057a1.29,1.29,0,0,1,.562.162,3.48,3.48,0,0,1,.381.324,1.052,1.052,0,0,1,.3.533,7.568,7.568,0,0,1,.133.781,9.086,9.086,0,0,1,.057,1.1V-3.39a1.337,1.337,0,0,0,.286.99,1.589,1.589,0,0,0,1.066.267q0,2.133-2,2.133a1.935,1.935,0,0,1-1.79-.8,4.682,4.682,0,0,1-.5-2.418v-.59l-.229.533a6.56,6.56,0,0,1-.657,1,7.008,7.008,0,0,1-1.181,1.257,6.471,6.471,0,0,1-1.781.962,6.859,6.859,0,0,1-2.476.438,8.746,8.746,0,0,1-3.809-.79,6.782,6.782,0,0,1-2.656-2.19A10.082,10.082,0,0,1,329-5.76a14.065,14.065,0,0,1-.5-3.818A14.065,14.065,0,0,1,329-13.4a10.082,10.082,0,0,1,1.495-3.161,6.782,6.782,0,0,1,2.656-2.19,8.746,8.746,0,0,1,3.809-.79,6.859,6.859,0,0,1,2.476.438,6.466,6.466,0,0,1,1.79.971,6.863,6.863,0,0,1,1.171,1.247,7.448,7.448,0,0,1,.667,1.019,5.047,5.047,0,0,1,.219.533Zm-3.2,12.445a5.728,5.728,0,0,0-2.666-.6,5.728,5.728,0,0,0-2.666.6,4.741,4.741,0,0,0-1.838,1.638,7.952,7.952,0,0,0-1.019,2.352,11.293,11.293,0,0,0-.343,2.856,11.293,11.293,0,0,0,.343,2.856,7.951,7.951,0,0,0,1.019,2.352,4.741,4.741,0,0,0,1.838,1.638,5.728,5.728,0,0,0,2.666.6,5.728,5.728,0,0,0,2.666-.6,4.741,4.741,0,0,0,1.838-1.638,7.951,7.951,0,0,0,1.019-2.352,11.293,11.293,0,0,0,.343-2.856,11.293,11.293,0,0,0-.343-2.856,7.951,7.951,0,0,0-1.019-2.352A4.741,4.741,0,0,0,340.083-16.425ZM379.705-8.3H368.66l-2.285,5.979a3.672,3.672,0,0,1-1.438,2.066A5.371,5.371,0,0,1,362.262,0l9.312-24.261a9.43,9.43,0,0,1,1.2-2.428,1.734,1.734,0,0,1,1.409-.619,1.734,1.734,0,0,1,1.409.619,9.43,9.43,0,0,1,1.2,2.428L386.1,0a5.634,5.634,0,0,1-2.733-.238,3.752,3.752,0,0,1-1.381-2.085Zm-1.047-2.742-4.475-11.769-4.475,11.769ZM390.366-2.38a10.607,10.607,0,0,1-2.39-7.2,10.607,10.607,0,0,1,2.39-7.2A8.311,8.311,0,0,1,397-19.538a10.974,10.974,0,0,1,2.076.19,8.943,8.943,0,0,1,1.647.457,11.222,11.222,0,0,1,1.162.543,4.854,4.854,0,0,1,.733.467l.229.19a2.456,2.456,0,0,1-.438.943,1.654,1.654,0,0,1-.552.476,1.425,1.425,0,0,1-.714.086,3.485,3.485,0,0,1-.667-.1q-.219-.067-.676-.219a.59.59,0,0,1-.114-.038A8.271,8.271,0,0,0,397-17.024a5.192,5.192,0,0,0-4.437,2.076,8.772,8.772,0,0,0-1.542,5.37,8.772,8.772,0,0,0,1.542,5.37A5.192,5.192,0,0,0,397-2.133a8.271,8.271,0,0,0,2.685-.476,4.6,4.6,0,0,1,1.828-.362q.99.152,1.333,1.5a2.529,2.529,0,0,1-.238.2,7.847,7.847,0,0,1-.714.438,9.209,9.209,0,0,1-1.181.562,9.793,9.793,0,0,1-1.628.448,10.611,10.611,0,0,1-2.085.2A8.311,8.311,0,0,1,390.366-2.38Zm18.1,0a10.607,10.607,0,0,1-2.39-7.2,10.607,10.607,0,0,1,2.39-7.2,8.311,8.311,0,0,1,6.636-2.761,10.974,10.974,0,0,1,2.076.19,8.943,8.943,0,0,1,1.647.457,11.222,11.222,0,0,1,1.162.543,4.854,4.854,0,0,1,.733.467l.229.19a2.456,2.456,0,0,1-.438.943,1.654,1.654,0,0,1-.552.476,1.425,1.425,0,0,1-.714.086,3.485,3.485,0,0,1-.667-.1q-.219-.067-.676-.219a.59.59,0,0,1-.114-.038,8.271,8.271,0,0,0-2.685-.476,5.192,5.192,0,0,0-4.437,2.076,8.772,8.772,0,0,0-1.542,5.37,8.772,8.772,0,0,0,1.542,5.37A5.192,5.192,0,0,0,415.1-2.133a8.271,8.271,0,0,0,2.685-.476,4.6,4.6,0,0,1,1.828-.362q.99.152,1.333,1.5a2.529,2.529,0,0,1-.238.2,7.847,7.847,0,0,1-.714.438,9.209,9.209,0,0,1-1.181.562,9.793,9.793,0,0,1-1.628.448,10.611,10.611,0,0,1-2.085.2A8.311,8.311,0,0,1,408.463-2.38ZM432.626.381a8.746,8.746,0,0,1-3.809-.79,6.782,6.782,0,0,1-2.656-2.19,10.082,10.082,0,0,1-1.495-3.161,14.065,14.065,0,0,1-.5-3.818,14.065,14.065,0,0,1,.5-3.818,10.082,10.082,0,0,1,1.495-3.161,6.782,6.782,0,0,1,2.656-2.19,8.746,8.746,0,0,1,3.809-.79,7.915,7.915,0,0,1,5.875,2.295,9.591,9.591,0,0,1,2.523,6.427,2.513,2.513,0,0,1-.514,1.847,2.748,2.748,0,0,1-2.114.647h-11.1a7.578,7.578,0,0,0,1.476,4.427,4.589,4.589,0,0,0,3.856,1.761,14.339,14.339,0,0,0,4.228-.724,6.576,6.576,0,0,1,.657-.181,3.393,3.393,0,0,1,.638-.048,1.4,1.4,0,0,1,.667.143,1.7,1.7,0,0,1,.543.533,2.968,2.968,0,0,1,.428,1,2.434,2.434,0,0,1-.3.19q-.2.114-.885.428a11.954,11.954,0,0,1-1.457.552,14.542,14.542,0,0,1-2,.428A16.448,16.448,0,0,1,432.626.381Zm-5.332-11.216h10.664a6.871,6.871,0,0,0-1.419-4.389,4.708,4.708,0,0,0-3.913-1.8,4.708,4.708,0,0,0-3.913,1.8A6.871,6.871,0,0,0,427.294-10.835Zm21.525-4.494a5.047,5.047,0,0,1,.219-.533,7.448,7.448,0,0,1,.667-1.019,6.863,6.863,0,0,1,1.171-1.247,6.466,6.466,0,0,1,1.79-.971,6.859,6.859,0,0,1,2.476-.438,8.746,8.746,0,0,1,3.809.79,6.782,6.782,0,0,1,2.656,2.19A10.082,10.082,0,0,1,463.1-13.4a14.065,14.065,0,0,1,.5,3.818,14.065,14.065,0,0,1-.5,3.818A10.082,10.082,0,0,1,461.606-2.6a6.782,6.782,0,0,1-2.656,2.19,8.746,8.746,0,0,1-3.809.79,6.859,6.859,0,0,1-2.476-.438,6.471,6.471,0,0,1-1.781-.962A7.008,7.008,0,0,1,449.7-2.276a6.56,6.56,0,0,1-.657-1l-.229-.533V10.131q-.59,0-.847-.01t-.657-.057a1.29,1.29,0,0,1-.562-.162,3.48,3.48,0,0,1-.381-.324,1.052,1.052,0,0,1-.3-.533,7.568,7.568,0,0,1-.133-.781,9.086,9.086,0,0,1-.057-1.1V-19.157q.59,0,.847.01t.657.057a1.29,1.29,0,0,1,.562.162,3.48,3.48,0,0,1,.381.324,1.052,1.052,0,0,1,.3.533,7.568,7.568,0,0,1,.133.781,9.086,9.086,0,0,1,.057,1.1Zm8.531-1.095a5.728,5.728,0,0,0-2.666-.6,5.728,5.728,0,0,0-2.666.6,4.741,4.741,0,0,0-1.838,1.638,7.952,7.952,0,0,0-1.019,2.352,11.293,11.293,0,0,0-.343,2.856,11.293,11.293,0,0,0,.343,2.856A7.951,7.951,0,0,0,450.18-4.37a4.741,4.741,0,0,0,1.838,1.638,5.728,5.728,0,0,0,2.666.6,5.728,5.728,0,0,0,2.666-.6,4.741,4.741,0,0,0,1.838-1.638,7.951,7.951,0,0,0,1.019-2.352,11.293,11.293,0,0,0,.343-2.856,11.293,11.293,0,0,0-.343-2.856,7.951,7.951,0,0,0-1.019-2.352A4.741,4.741,0,0,0,457.35-16.425Zm16.231-.219V-8.4q0,1.219.029,1.933t.133,1.533a4.275,4.275,0,0,0,.314,1.257,3.375,3.375,0,0,0,.581.838,1.934,1.934,0,0,0,.924.552,5.068,5.068,0,0,0,1.333.152,7.115,7.115,0,0,0,1.085-.1q.609-.1.971-.19l.362-.1a2.153,2.153,0,0,1-.686,2.228,4.155,4.155,0,0,1-2.495.667A6.632,6.632,0,0,1,473.771.01a4.177,4.177,0,0,1-1.581-1.019,4.426,4.426,0,0,1-.952-1.781,12.468,12.468,0,0,1-.467-2.428q-.124-1.295-.124-3.18v-8.246h-4.666q0-.438.019-.686a3.856,3.856,0,0,1,.124-.647,1.387,1.387,0,0,1,.314-.619,1.8,1.8,0,0,1,.647-.39,2.874,2.874,0,0,1,1.047-.171h2.514v-5.6q.59,0,.847.01t.657.057a1.29,1.29,0,0,1,.562.162,3.48,3.48,0,0,1,.381.324,1.052,1.052,0,0,1,.3.533,7.568,7.568,0,0,1,.133.781,9.086,9.086,0,0,1,.057,1.1v2.628h5.713q0,.438-.019.686a3.856,3.856,0,0,1-.124.647,1.387,1.387,0,0,1-.314.619,1.8,1.8,0,0,1-.647.39,2.874,2.874,0,0,1-1.047.171Z" transform="translate(241 -1638)"/><path class="e" d="M7.008,0A4.51,4.51,0,0,1,4.393-.686,2.683,2.683,0,0,1,3.2-2.361a4.252,4.252,0,0,1,.127-2.095A4.677,4.677,0,0,1,4.469-6.4L16.91-19.348a25.671,25.671,0,0,0,3.339-4.113A7.216,7.216,0,0,0,21.3-27.295a4.472,4.472,0,0,0-1.815-3.859,8.238,8.238,0,0,0-4.938-1.32,9.1,9.1,0,0,0-3.174.571,9.779,9.779,0,0,0-2.6,1.384,18.276,18.276,0,0,0-1.866,1.638,11.462,11.462,0,0,0-1.219,1.409l-.381.559a2.326,2.326,0,0,1-2.146-1.8,3.781,3.781,0,0,1,.825-3.326,11.835,11.835,0,0,1,4.278-3.428,13.6,13.6,0,0,1,6.284-1.447q5.434,0,8.671,2.577a8.519,8.519,0,0,1,3.237,7.046A11.766,11.766,0,0,1,25.2-21.734,23.9,23.9,0,0,1,21.049-16.4L9.445-4.418h17.8q0,.533-.013.838t-.063.838A3.594,3.594,0,0,1,27-1.892a4.892,4.892,0,0,1-.343.724,1.745,1.745,0,0,1-.559.622,3.531,3.531,0,0,1-.838.381A3.778,3.778,0,0,1,24.1,0ZM51.272-.406a13.9,13.9,0,0,1-5.154.914,13.9,13.9,0,0,1-5.154-.914,11.035,11.035,0,0,1-3.923-2.577,14.73,14.73,0,0,1-2.717-4,20.527,20.527,0,0,1-1.612-5.142,34.18,34.18,0,0,1-.508-6.081,34.18,34.18,0,0,1,.508-6.081,20.527,20.527,0,0,1,1.612-5.142,14.73,14.73,0,0,1,2.717-4A11.035,11.035,0,0,1,40.964-36a13.9,13.9,0,0,1,5.154-.914A13.9,13.9,0,0,1,51.272-36,11.035,11.035,0,0,1,55.2-33.427a14.73,14.73,0,0,1,2.717,4,20.527,20.527,0,0,1,1.612,5.142,34.18,34.18,0,0,1,.508,6.081,34.18,34.18,0,0,1-.508,6.081,20.527,20.527,0,0,1-1.612,5.142,14.73,14.73,0,0,1-2.717,4A11.035,11.035,0,0,1,51.272-.406ZM42.055-4.989a7.644,7.644,0,0,0,4.063,1.054A7.644,7.644,0,0,0,50.18-4.989a7.436,7.436,0,0,0,2.742-3.021,16.5,16.5,0,0,0,1.5-4.494,30.549,30.549,0,0,0,.482-5.7,30.549,30.549,0,0,0-.482-5.7,16.5,16.5,0,0,0-1.5-4.494,7.436,7.436,0,0,0-2.742-3.021,7.644,7.644,0,0,0-4.062-1.054,7.644,7.644,0,0,0-4.062,1.054A7.436,7.436,0,0,0,39.313-28.4a16.5,16.5,0,0,0-1.5,4.494,30.549,30.549,0,0,0-.482,5.7,30.549,30.549,0,0,0,.482,5.7,16.5,16.5,0,0,0,1.5,4.494A7.436,7.436,0,0,0,42.055-4.989ZM83.806-.406a13.9,13.9,0,0,1-5.154.914A13.9,13.9,0,0,1,73.5-.406a11.035,11.035,0,0,1-3.923-2.577,14.73,14.73,0,0,1-2.717-4,20.527,20.527,0,0,1-1.612-5.142,34.181,34.181,0,0,1-.508-6.081,34.181,34.181,0,0,1,.508-6.081,20.527,20.527,0,0,1,1.612-5.142,14.731,14.731,0,0,1,2.717-4A11.035,11.035,0,0,1,73.5-36a13.9,13.9,0,0,1,5.154-.914A13.9,13.9,0,0,1,83.806-36a11.035,11.035,0,0,1,3.923,2.577,14.731,14.731,0,0,1,2.717,4,20.527,20.527,0,0,1,1.612,5.142,34.181,34.181,0,0,1,.508,6.081,34.181,34.181,0,0,1-.508,6.081,20.527,20.527,0,0,1-1.612,5.142,14.73,14.73,0,0,1-2.717,4A11.035,11.035,0,0,1,83.806-.406ZM74.589-4.989a7.644,7.644,0,0,0,4.063,1.054,7.644,7.644,0,0,0,4.063-1.054,7.436,7.436,0,0,0,2.742-3.021,16.5,16.5,0,0,0,1.5-4.494,30.548,30.548,0,0,0,.482-5.7,30.548,30.548,0,0,0-.482-5.7,16.5,16.5,0,0,0-1.5-4.494,7.436,7.436,0,0,0-2.742-3.021,7.644,7.644,0,0,0-4.062-1.054,7.644,7.644,0,0,0-4.062,1.054A7.436,7.436,0,0,0,71.847-28.4a16.5,16.5,0,0,0-1.5,4.494,30.548,30.548,0,0,0-.482,5.7,30.548,30.548,0,0,0,.482,5.7,16.5,16.5,0,0,0,1.5,4.494A7.436,7.436,0,0,0,74.589-4.989Z" transform="translate(592 -1793)"/></g></g></svg>